<svg xmlns="http://www.w3.org/2000/svg" xmlns:xlink="http://www.w3.org/1999/xlink" width="48" height="48"><g fill="none" fill-rule="evenodd"><g fill="#EFDB50" fill-rule="nonzero" transform="translate(-597 -1651)"><g transform="translate(96 1069)"><g transform="translate(0 272)"><g transform="translate(360 262)"><g><g transform="translate(141 48)"><path d="M0 0h48v48H0V0zm32.227 37.508l-3.665 2.13c1.324 2.619 4.03 4.616 8.219 4.616 4.284 0 7.473-2.226 7.473-6.29 0-3.768-2.163-5.445-5.995-7.09l-1.128-.483c-1.935-.838-2.773-1.386-2.773-2.74 0-1.096.838-1.935 2.159-1.935 1.295 0 2.129.547 2.902 1.935l3.512-2.257c-1.485-2.615-3.547-3.614-6.414-3.614-4.028 0-6.605 2.577-6.605 5.962 0 3.675 2.162 5.413 5.416 6.8l1.128.485c2.056.9 3.283 1.448 3.283 2.996 0 1.291-1.194 2.226-3.063 2.226-2.224 0-3.482-1.161-4.449-2.74zm-15.932.391l-3.67 2.224c1.063 2.253 3.154 4.123 6.765 4.123 3.997 0 6.735-2.127 6.735-6.8V22.038h-4.51v15.347c0 2.255-.935 2.836-2.417 2.836-1.55 0-2.194-1.064-2.903-2.322z"/></g></g></g></g></g></g></g></svg>