<svg xmlns="http://www.w3.org/2000/svg" width="64" height="64"><path fill="#ef533f" d="M39.755 53.777a.985.985 0 01-.847-.479l-7.455-12.435-13.943 3.79a.985.985 0 01-1.1-.495L.117 13.534a.985.985 0 01.737-1.442l13.833-1.86a.985.985 0 01.979.468l16.7 27.87 19.406-5.277-6.47-9.14a.985.985 0 01.55-1.53l9.08-2.146a.985.985 0 01.996.341l7.857 9.8a.985.985 0 01-.512 1.568l-8.253 2.25 7.224 10.18a.985.985 0 01-.479 1.502L40.07 53.706a.985.985 0 01-.314.061zm-6.328-13.453l6.757 11.268 19.692-6.894-6.878-9.695zM2.52 13.842l15.247 28.7 12.655-3.433-16.116-26.834zm45.25 10.366l6.052 8.534 7.527-2.047-6.548-8.154z"/></svg>